<?xml version="1.0" encoding="UTF-8" standalone="no"?>
<!-- Generator: Adobe Illustrator 26.0.1, SVG Export Plug-In . SVG Version: 6.00 Build 0)  -->

<svg
   version="1.1"
   x="0px"
   y="0px"
   viewBox="0 0 150.00001 24.999999"
   xml:space="preserve"
   id="svg94"
   sodipodi:docname="discord.svg"
   inkscape:version="1.2 (dc2aedaf03, 2022-05-15)"
   width="150"
   height="25"
   xmlns:inkscape="http://www.inkscape.org/namespaces/inkscape"
   xmlns:sodipodi="http://sodipodi.sourceforge.net/DTD/sodipodi-0.dtd"
   xmlns="http://www.w3.org/2000/svg"
   xmlns:svg="http://www.w3.org/2000/svg"><defs
   id="defs98"><clipPath
     id="clip0"><rect
       width="71"
       height="55"
       fill="#ffffff"
       id="rect1030"
       x="0"
       y="0" /></clipPath></defs><sodipodi:namedview
   id="namedview96"
   pagecolor="#ffffff"
   bordercolor="#000000"
   borderopacity="0.25"
   inkscape:showpageshadow="2"
   inkscape:pageopacity="0.0"
   inkscape:pagecheckerboard="0"
   inkscape:deskcolor="#000000"
   showgrid="false"
   inkscape:zoom="7.9999999"
   inkscape:cx="65.437501"
   inkscape:cy="15.5625"
   inkscape:window-width="1920"
   inkscape:window-height="999"
   inkscape:window-x="0"
   inkscape:window-y="0"
   inkscape:window-maximized="1"
   inkscape:current-layer="Слой_2" />
<style
   type="text/css"
   id="style74">
	.st0{display:none;}
	.st1{display:inline;}
	.st2{fill:#2091C0;}
	.st3{fill:#FFFFFF;}
	.st4{font-family:'JetBrainsMono-Medium';}
	.st5{font-size:47.0914px;}
</style>


<g
   inkscape:groupmode="layer"
   id="layer1"
   inkscape:label="background"><rect
     style="fill:#5865f2;fill-opacity:1;stroke-width:0.643274"
     id="rect1506"
     width="148.47887"
     height="22.386663"
     x="0.62099999"
     y="1.4"
     ry="10.739675"
     inkscape:label="color_rounded" /></g><g
   id="Слой_2"
   transform="matrix(0.5,0,0,0.5,-3.1425839,0.11180457)"
   inkscape:label="foreground"
   style="display:inline">
	
<text
   xml:space="preserve"
   style="font-size:32px;font-family:'DejaVu Sans Mono for Powerline';-inkscape-font-specification:'DejaVu Sans Mono for Powerline';display:none;fill:#ffffff"
   x="80.52578"
   y="36.408001"
   id="text227"
   inkscape:label="text"><tspan
     sodipodi:role="line"
     id="tspan225"
     x="80.52578"
     y="36.408001"
     style="font-style:normal;font-variant:normal;font-weight:normal;font-stretch:normal;font-size:32px;font-family:Ubuntu;-inkscape-font-specification:Ubuntu">gmanka#3806</tspan></text><path
   d="M 63.950391,14.183992 C 61.375528,13.002535 58.614376,12.13209 55.72742,11.63355 c -0.05258,-0.0096 -0.105092,0.01442 -0.132177,0.06252 -0.355108,0.631588 -0.748453,1.455547 -1.023903,2.103174 -3.105107,-0.464867 -6.194282,-0.464867 -9.23572,0 -0.275506,-0.662023 -0.683133,-1.471586 -1.039834,-2.103174 -0.02708,-0.04649 -0.0796,-0.07053 -0.132177,-0.06252 -2.885364,0.496947 -5.646515,1.367392 -8.222971,2.550442 -0.0223,0.0096 -0.04142,0.02566 -0.05411,0.04649 -5.237323,7.824447 -6.672044,15.456576 -5.968218,22.994081 0.0032,0.03687 0.02389,0.07215 0.05254,0.09457 3.455436,2.537595 6.802616,4.078143 10.087639,5.099258 0.05258,0.01605 0.108279,-0.0032 0.141736,-0.04649 0.777073,-1.061172 1.469765,-2.180096 2.06368,-3.356774 0.03505,-0.06891 0.0016,-0.150669 -0.07005,-0.177924 -1.098725,-0.416786 -2.144933,-0.924954 -3.15131,-1.502027 -0.0796,-0.04649 -0.08597,-0.160342 -0.01275,-0.214852 0.211779,-0.158692 0.423615,-0.323813 0.625835,-0.490529 0.03659,-0.03044 0.08757,-0.03687 0.130584,-0.01764 6.611469,3.018564 13.769172,3.018564 20.302632,0 0.04301,-0.02083 0.094,-0.0144 0.132177,0.01605 0.202277,0.166714 0.414056,0.333429 0.627428,0.492121 0.07323,0.05451 0.06845,0.168365 -0.01116,0.214852 -1.006378,0.588282 -2.052585,1.085241 -3.152904,1.500435 -0.07164,0.02725 -0.103499,0.110612 -0.06844,0.179516 0.60666,1.175028 1.299352,2.293952 2.062087,3.355181 0.03187,0.04489 0.08916,0.06413 0.141736,0.04808 3.300955,-1.021115 6.648112,-2.561663 10.103548,-5.099258 0.03027,-0.02242 0.04938,-0.0561 0.05258,-0.09297 0.842345,-8.714181 -1.410866,-16.28372 -5.972994,-22.99408 -0.01116,-0.02242 -0.03022,-0.03846 -0.05252,-0.04808 z M 43.251229,32.635007 c -1.990508,0 -3.63063,-1.827435 -3.63063,-4.071713 0,-2.244278 1.608315,-4.071712 3.63063,-4.071712 2.038188,0 3.662436,1.84348 3.630572,4.071712 0,2.244278 -1.608315,4.071713 -3.630572,4.071713 z m 13.423622,0 c -1.990451,0 -3.630573,-1.827435 -3.630573,-4.071713 0,-2.244278 1.608258,-4.071712 3.630573,-4.071712 2.038246,0 3.662436,1.84348 3.630629,4.071712 0,2.244278 -1.592383,4.071713 -3.630629,4.071713 z"
   fill="#5865f2"
   id="path1026-4"
   style="display:inline;fill:#ffffff;fill-opacity:1;stroke-width:0.568992"
   inkscape:label="logo" /><g
   aria-label="gmanka#3806"
   id="text1260"
   style="font-size:32px;font-family:'DejaVu Sans Mono for Powerline';-inkscape-font-specification:'DejaVu Sans Mono for Powerline';fill:#ffffff"
   inkscape:label="text"><path
     d="m 93.51778,34.744001 q -0.384,0.256 -1.504,0.672 -1.088,0.384 -2.56,0.384 -1.504,0 -2.848,-0.48 -1.312,-0.48 -2.304,-1.472 -0.992,-1.024 -1.568,-2.528 -0.576,-1.504 -0.576,-3.584 0,-1.824 0.544,-3.328 0.544,-1.536 1.568,-2.624 1.056,-1.12 2.56,-1.728 1.504,-0.64 3.392,-0.64 2.08,0 3.616,0.32 1.568,0.288 2.624,0.544 v 14.848 q 0,3.84 -1.984,5.568 -1.984,1.728 -6.016,1.728 -1.568,0 -2.976,-0.256 -1.376,-0.256 -2.4,-0.608 l 0.544,-2.592 q 0.896,0.352 2.176,0.608 1.312,0.288 2.72,0.288 2.656,0 3.808,-1.056 1.184,-1.056 1.184,-3.36 z m -0.032,-12.352 q -0.448,-0.128 -1.216,-0.224 -0.736,-0.128 -2.016,-0.128 -2.4,0 -3.712,1.568 -1.28,1.568 -1.28,4.16 0,1.44 0.352,2.464 0.384,1.024 0.992,1.696 0.64,0.672 1.44,0.992 0.832,0.32 1.696,0.32 1.184,0 2.176,-0.32 0.992,-0.352 1.568,-0.8 z"
     style="font-family:Ubuntu;-inkscape-font-specification:Ubuntu"
     id="path1262" /><path
     d="m 101.58175,20.248001 q 1.024,-0.256 2.688,-0.544 1.696,-0.288 3.904,-0.288 1.6,0 2.688,0.448 1.088,0.416 1.824,1.248 0.224,-0.16 0.704,-0.448 0.48,-0.288 1.184,-0.544 0.704,-0.288 1.568,-0.48 0.864,-0.224 1.856,-0.224 1.92,0 3.136,0.576 1.216,0.544 1.888,1.568 0.704,1.024 0.928,2.432 0.256,1.408 0.256,3.072 v 9.344 h -2.976 v -8.704 q 0,-1.472 -0.16,-2.528 -0.128,-1.056 -0.544,-1.76 -0.384,-0.704 -1.088,-1.024 -0.672,-0.352 -1.76,-0.352 -1.504,0 -2.496,0.416 -0.96,0.384 -1.312,0.704 0.256,0.832 0.384,1.824 0.128,0.992 0.128,2.08 v 9.344 h -2.976 v -8.704 q 0,-1.472 -0.16,-2.528 -0.16,-1.056 -0.576,-1.76 -0.384,-0.704 -1.088,-1.024 -0.672,-0.352 -1.728,-0.352 -0.448,0 -0.96,0.032 -0.512,0.032 -0.992,0.096 -0.448,0.032 -0.832,0.096 -0.384,0.064 -0.512,0.096 v 14.048 h -2.976 z"
     style="font-family:Ubuntu;-inkscape-font-specification:Ubuntu"
     id="path1264" /><path
     d="m 134.76575,34.264001 q 1.056,0 1.856,-0.032 0.832,-0.064 1.376,-0.192 v -4.96 q -0.32,-0.16 -1.056,-0.256 -0.704,-0.128 -1.728,-0.128 -0.672,0 -1.44,0.096 -0.736,0.096 -1.376,0.416 -0.608,0.288 -1.024,0.832 -0.416,0.512 -0.416,1.376 0,1.6 1.024,2.24 1.024,0.608 2.784,0.608 z m -0.256,-14.912 q 1.792,0 3.008,0.48 1.248,0.448 1.984,1.312 0.768,0.832 1.088,2.016 0.32,1.152 0.32,2.56 v 10.4 q -0.384,0.064 -1.088,0.192 -0.672,0.096 -1.536,0.192 -0.864,0.096 -1.888,0.16 -0.992,0.096 -1.984,0.096 -1.408,0 -2.592,-0.288 -1.184,-0.288 -2.048,-0.896 -0.864,-0.64 -1.344,-1.664 -0.48,-1.024 -0.48,-2.464 0,-1.376 0.544,-2.368 0.576,-0.992 1.536,-1.6 0.96,-0.608 2.24,-0.896 1.28,-0.288 2.688,-0.288 0.448,0 0.928,0.064 0.48,0.032 0.896,0.128 0.448,0.064 0.768,0.128 0.32,0.064 0.448,0.096 v -0.832 q 0,-0.736 -0.16,-1.44 -0.16,-0.736 -0.576,-1.28 -0.416,-0.576 -1.152,-0.896 -0.704,-0.352 -1.856,-0.352 -1.472,0 -2.592,0.224 -1.088,0.192 -1.632,0.416 l -0.352,-2.464 q 0.576,-0.256 1.92,-0.48 1.344,-0.256 2.912,-0.256 z"
     style="font-family:Ubuntu;-inkscape-font-specification:Ubuntu"
     id="path1266" /><path
     d="m 145.83773,20.248001 q 1.024,-0.256 2.72,-0.544 1.696,-0.288 3.904,-0.288 1.984,0 3.296,0.576 1.312,0.544 2.08,1.568 0.8,0.992 1.12,2.4 0.32,1.408 0.32,3.104 v 9.344 h -2.976 v -8.704 q 0,-1.536 -0.224,-2.624 -0.192,-1.088 -0.672,-1.76 -0.48,-0.672 -1.28,-0.96 -0.8,-0.32 -1.984,-0.32 -0.48,0 -0.992,0.032 -0.512,0.032 -0.992,0.096 -0.448,0.032 -0.832,0.096 -0.352,0.064 -0.512,0.096 v 14.048 h -2.976 z"
     style="font-family:Ubuntu;-inkscape-font-specification:Ubuntu"
     id="path1268" /><path
     d="m 170.22171,27.256001 q 0.96,0.736 2.016,1.824 1.088,1.088 2.112,2.368 1.056,1.248 1.984,2.56 0.928,1.28 1.568,2.4 h -3.488 q -0.672,-1.12 -1.568,-2.272 -0.864,-1.184 -1.824,-2.24 -0.96,-1.088 -1.952,-1.984 -0.992,-0.896 -1.888,-1.504 v 8 h -2.976 v -24.32 l 2.976,-0.512 v 15.168 q 0.768,-0.768 1.696,-1.696 0.928,-0.928 1.824,-1.888 0.896,-0.96 1.696,-1.824 0.8,-0.896 1.376,-1.568 h 3.488 q -0.736,0.8 -1.6,1.76 -0.864,0.96 -1.792,1.952 -0.928,0.96 -1.888,1.952 -0.928,0.96 -1.76,1.824 z"
     style="font-family:Ubuntu;-inkscape-font-specification:Ubuntu"
     id="path1270" /><path
     d="m 186.54169,34.264001 q 1.056,0 1.856,-0.032 0.832,-0.064 1.376,-0.192 v -4.96 q -0.32,-0.16 -1.056,-0.256 -0.704,-0.128 -1.728,-0.128 -0.672,0 -1.44,0.096 -0.736,0.096 -1.376,0.416 -0.608,0.288 -1.024,0.832 -0.416,0.512 -0.416,1.376 0,1.6 1.024,2.24 1.024,0.608 2.784,0.608 z m -0.256,-14.912 q 1.792,0 3.008,0.48 1.248,0.448 1.984,1.312 0.768,0.832 1.088,2.016 0.32,1.152 0.32,2.56 v 10.4 q -0.384,0.064 -1.088,0.192 -0.672,0.096 -1.536,0.192 -0.864,0.096 -1.888,0.16 -0.992,0.096 -1.984,0.096 -1.408,0 -2.592,-0.288 -1.184,-0.288 -2.048,-0.896 -0.864,-0.64 -1.344,-1.664 -0.48,-1.024 -0.48,-2.464 0,-1.376 0.544,-2.368 0.576,-0.992 1.536,-1.6 0.96,-0.608 2.24,-0.896 1.28,-0.288 2.688,-0.288 0.448,0 0.928,0.064 0.48,0.032 0.896,0.128 0.448,0.064 0.768,0.128 0.32,0.064 0.448,0.096 v -0.832 q 0,-0.736 -0.16,-1.44 -0.16,-0.736 -0.576,-1.28 -0.416,-0.576 -1.152,-0.896 -0.704,-0.352 -1.856,-0.352 -1.472,0 -2.592,0.224 -1.088,0.192 -1.632,0.416 l -0.352,-2.464 q 0.576,-0.256 1.92,-0.48 1.344,-0.256 2.912,-0.256 z"
     style="font-family:Ubuntu;-inkscape-font-specification:Ubuntu"
     id="path1272" /><path
     d="m 204.14167,20.088001 h 5.184 l 1.12,-5.856 h 2.688 l -1.12,5.856 h 2.816 v 2.368 h -3.296 l -1.088,5.728 h 4.384 v 2.368 h -4.832 l -1.12,5.856 h -2.688 l 1.12,-5.856 h -5.184 l -1.12,5.856 h -2.688 l 1.12,-5.856 h -2.816 v -2.368 h 3.264 l 1.088,-5.728 h -4.352 v -2.368 h 4.832 l 1.12,-5.856 h 2.688 z m -1.568,8.096 h 5.184 l 1.12,-5.728 h -5.184 z"
     style="font-family:Ubuntu;-inkscape-font-specification:Ubuntu"
     id="path1274" /><path
     d="m 223.62967,34.232001 q 2.848,0 4.064,-1.12 1.248,-1.12 1.248,-3.008 0,-1.216 -0.512,-2.048 -0.512,-0.832 -1.344,-1.312 -0.832,-0.512 -1.952,-0.704 -1.088,-0.224 -2.24,-0.224 h -0.768 v -2.432 h 1.056 q 0.8,0 1.632,-0.16 0.864,-0.16 1.568,-0.576 0.704,-0.416 1.152,-1.12 0.448,-0.736 0.448,-1.824 0,-0.896 -0.32,-1.536 -0.32,-0.64 -0.864,-1.056 -0.512,-0.416 -1.216,-0.576 -0.672,-0.192 -1.44,-0.192 -1.536,0 -2.624,0.448 -1.056,0.448 -1.792,0.928 l -1.152,-2.272 q 0.384,-0.256 0.96,-0.544 0.608,-0.32 1.344,-0.576 0.736,-0.256 1.568,-0.416 0.864,-0.192 1.792,-0.192 1.76,0 3.04,0.448 1.28,0.416 2.112,1.216 0.832,0.768 1.248,1.856 0.416,1.056 0.416,2.304 0,1.728 -0.992,2.976 -0.992,1.216 -2.4,1.856 0.864,0.256 1.664,0.736 0.8,0.48 1.376,1.216 0.608,0.736 0.96,1.696 0.384,0.96 0.384,2.144 0,1.44 -0.512,2.688 -0.48,1.216 -1.536,2.112 -1.024,0.896 -2.592,1.408 -1.568,0.512 -3.712,0.512 -0.832,0 -1.728,-0.128 -0.864,-0.128 -1.632,-0.32 -0.768,-0.192 -1.344,-0.384 -0.576,-0.192 -0.832,-0.32 l 0.576,-2.592 q 0.544,0.256 1.792,0.672 1.28,0.416 3.104,0.416 z"
     style="font-family:Ubuntu;-inkscape-font-specification:Ubuntu"
     id="path1276" /><path
     d="m 250.73364,30.648001 q 0,1.344 -0.48,2.496 -0.448,1.12 -1.376,1.984 -0.896,0.832 -2.272,1.28 -1.376,0.48 -3.168,0.48 -2.08,0 -3.488,-0.576 -1.376,-0.608 -2.208,-1.504 -0.832,-0.896 -1.184,-1.952 -0.352,-1.088 -0.352,-2.048 0,-0.928 0.288,-1.76 0.32,-0.864 0.8,-1.6 0.512,-0.736 1.152,-1.312 0.672,-0.608 1.408,-1.056 -3.136,-1.792 -3.136,-5.28 0,-1.216 0.48,-2.304 0.48,-1.12 1.344,-1.952 0.896,-0.832 2.144,-1.312 1.248,-0.512 2.784,-0.512 1.792,0 3.072,0.544 1.28,0.544 2.08,1.408 0.832,0.832 1.184,1.856 0.384,1.024 0.384,1.984 0,0.928 -0.288,1.76 -0.256,0.8 -0.736,1.504 -0.448,0.704 -1.056,1.248 -0.576,0.544 -1.216,0.96 3.776,1.792 3.84,5.664 z m -11.52,0.192 q 0,0.576 0.192,1.216 0.224,0.608 0.736,1.152 0.512,0.512 1.312,0.864 0.8,0.352 2.016,0.352 1.088,0 1.888,-0.32 0.832,-0.32 1.344,-0.8 0.512,-0.512 0.768,-1.152 0.256,-0.64 0.256,-1.312 0,-1.024 -0.384,-1.792 -0.384,-0.768 -1.12,-1.344 -0.704,-0.576 -1.728,-0.96 -0.992,-0.416 -2.272,-0.704 -1.44,0.8 -2.24,1.984 -0.768,1.184 -0.768,2.816 z m 8,-11.36 q 0,-0.48 -0.224,-1.056 -0.192,-0.576 -0.64,-1.056 -0.448,-0.512 -1.152,-0.832 -0.704,-0.352 -1.728,-0.352 -1.024,0 -1.76,0.32 -0.704,0.32 -1.152,0.832 -0.448,0.48 -0.672,1.088 -0.192,0.576 -0.192,1.152 0,0.704 0.256,1.408 0.256,0.704 0.8,1.312 0.544,0.608 1.408,1.088 0.896,0.48 2.112,0.768 1.344,-0.8 2.144,-1.856 0.8,-1.088 0.8,-2.816 z"
     style="font-family:Ubuntu;-inkscape-font-specification:Ubuntu"
     id="path1278" /><path
     d="m 254.09361,25.304001 q 0,-5.568 1.952,-8.576 1.984,-3.008 5.472,-3.008 3.488,0 5.44,3.008 1.984,3.008 1.984,8.576 0,5.568 -1.984,8.576 -1.952,3.008 -5.44,3.008 -3.488,0 -5.472,-3.008 -1.952,-3.008 -1.952,-8.576 z m 11.712,0 q 0,-1.824 -0.224,-3.456 -0.192,-1.632 -0.704,-2.848 -0.48,-1.216 -1.312,-1.92 -0.832,-0.736 -2.048,-0.736 -1.216,0 -2.048,0.736 -0.832,0.704 -1.344,1.92 -0.48,1.216 -0.704,2.848 -0.192,1.632 -0.192,3.456 0,1.824 0.192,3.456 0.224,1.632 0.704,2.848 0.512,1.216 1.344,1.952 0.832,0.704 2.048,0.704 1.216,0 2.048,-0.704 0.832,-0.736 1.312,-1.952 0.512,-1.216 0.704,-2.848 0.224,-1.632 0.224,-3.456 z"
     style="font-family:Ubuntu;-inkscape-font-specification:Ubuntu"
     id="path1280" /><path
     d="m 272.55759,27.512001 q 0,-3.232 0.896,-5.696 0.896,-2.496 2.528,-4.192 1.664,-1.696 4,-2.56 2.368,-0.896 5.312,-0.928 l 0.224,2.496 q -1.888,0.032 -3.456,0.416 -1.536,0.384 -2.752,1.216 -1.216,0.832 -2.048,2.176 -0.832,1.312 -1.248,3.264 0.832,-0.384 1.856,-0.64 1.056,-0.256 2.176,-0.256 1.888,0 3.2,0.576 1.312,0.576 2.144,1.536 0.832,0.928 1.184,2.176 0.384,1.216 0.384,2.56 0,1.216 -0.416,2.496 -0.416,1.28 -1.28,2.336 -0.832,1.056 -2.144,1.728 -1.312,0.672 -3.104,0.672 -3.648,0 -5.568,-2.496 -1.888,-2.496 -1.888,-6.88 z m 7.168,-2.272 q -1.12,0 -2.08,0.224 -0.96,0.192 -1.92,0.608 -0.032,0.352 -0.064,0.736 0,0.352 0,0.704 0,1.408 0.192,2.656 0.192,1.248 0.672,2.208 0.512,0.928 1.344,1.504 0.832,0.544 2.112,0.544 1.056,0 1.792,-0.448 0.736,-0.448 1.216,-1.152 0.48,-0.704 0.672,-1.504 0.224,-0.832 0.224,-1.6 0,-2.176 -1.056,-3.328 -1.024,-1.152 -3.104,-1.152 z"
     style="font-family:Ubuntu;-inkscape-font-specification:Ubuntu"
     id="path1282" /></g></g></svg>
