<?xml version="1.0" encoding="UTF-8" standalone="no"?>
<!-- Generator: Adobe Illustrator 26.0.1, SVG Export Plug-In . SVG Version: 6.00 Build 0)  -->

<svg
   version="1.1"
   x="0px"
   y="0px"
   viewBox="0 0 150.00001 24.999999"
   xml:space="preserve"
   id="svg94"
   sodipodi:docname="discord.svg"
   inkscape:version="1.2 (dc2aedaf03, 2022-05-15)"
   width="150"
   height="25"
   xmlns:inkscape="http://www.inkscape.org/namespaces/inkscape"
   xmlns:sodipodi="http://sodipodi.sourceforge.net/DTD/sodipodi-0.dtd"
   xmlns="http://www.w3.org/2000/svg"
   xmlns:svg="http://www.w3.org/2000/svg"><defs
   id="defs98"><clipPath
     id="clip0"><rect
       width="71"
       height="55"
       fill="#ffffff"
       id="rect1030"
       x="0"
       y="0" /></clipPath></defs><sodipodi:namedview
   id="namedview96"
   pagecolor="#ffffff"
   bordercolor="#000000"
   borderopacity="0.25"
   inkscape:showpageshadow="2"
   inkscape:pageopacity="0.0"
   inkscape:pagecheckerboard="0"
   inkscape:deskcolor="#000000"
   showgrid="false"
   inkscape:zoom="7.9999999"
   inkscape:cx="65.375001"
   inkscape:cy="15.5625"
   inkscape:window-width="1920"
   inkscape:window-height="999"
   inkscape:window-x="0"
   inkscape:window-y="0"
   inkscape:window-maximized="1"
   inkscape:current-layer="svg94" />
<style
   type="text/css"
   id="style74">
	.st0{display:none;}
	.st1{display:inline;}
	.st2{fill:#2091C0;}
	.st3{fill:#FFFFFF;}
	.st4{font-family:'JetBrainsMono-Medium';}
	.st5{font-size:47.0914px;}
</style>


<g
   inkscape:groupmode="layer"
   id="layer1"
   inkscape:label="background"><rect
     style="fill:#5865f2;fill-opacity:1;stroke-width:0.643274"
     id="rect1506"
     width="148.47887"
     height="22.386663"
     x="0.62099999"
     y="1.4"
     ry="10.739675"
     inkscape:label="color_rounded" /></g><g
   id="Слой_2"
   transform="matrix(0.5,0,0,0.5,-3.1425839,0.11180457)"
   inkscape:label="foreground"
   style="display:inline">
	
<text
   xml:space="preserve"
   style="font-size:32px;font-family:'DejaVu Sans Mono for Powerline';-inkscape-font-specification:'DejaVu Sans Mono for Powerline';fill:#ffffff"
   x="80.52578"
   y="36.408001"
   id="text227"
   inkscape:label="text"><tspan
     sodipodi:role="line"
     id="tspan225"
     x="80.52578"
     y="36.408001"
     style="font-style:normal;font-variant:normal;font-weight:normal;font-stretch:normal;font-size:32px;font-family:Ubuntu;-inkscape-font-specification:Ubuntu">gmanka#3806</tspan></text><path
   d="M 63.950391,14.183992 C 61.375528,13.002535 58.614376,12.13209 55.72742,11.63355 c -0.05258,-0.0096 -0.105092,0.01442 -0.132177,0.06252 -0.355108,0.631588 -0.748453,1.455547 -1.023903,2.103174 -3.105107,-0.464867 -6.194282,-0.464867 -9.23572,0 -0.275506,-0.662023 -0.683133,-1.471586 -1.039834,-2.103174 -0.02708,-0.04649 -0.0796,-0.07053 -0.132177,-0.06252 -2.885364,0.496947 -5.646515,1.367392 -8.222971,2.550442 -0.0223,0.0096 -0.04142,0.02566 -0.05411,0.04649 -5.237323,7.824447 -6.672044,15.456576 -5.968218,22.994081 0.0032,0.03687 0.02389,0.07215 0.05254,0.09457 3.455436,2.537595 6.802616,4.078143 10.087639,5.099258 0.05258,0.01605 0.108279,-0.0032 0.141736,-0.04649 0.777073,-1.061172 1.469765,-2.180096 2.06368,-3.356774 0.03505,-0.06891 0.0016,-0.150669 -0.07005,-0.177924 -1.098725,-0.416786 -2.144933,-0.924954 -3.15131,-1.502027 -0.0796,-0.04649 -0.08597,-0.160342 -0.01275,-0.214852 0.211779,-0.158692 0.423615,-0.323813 0.625835,-0.490529 0.03659,-0.03044 0.08757,-0.03687 0.130584,-0.01764 6.611469,3.018564 13.769172,3.018564 20.302632,0 0.04301,-0.02083 0.094,-0.0144 0.132177,0.01605 0.202277,0.166714 0.414056,0.333429 0.627428,0.492121 0.07323,0.05451 0.06845,0.168365 -0.01116,0.214852 -1.006378,0.588282 -2.052585,1.085241 -3.152904,1.500435 -0.07164,0.02725 -0.103499,0.110612 -0.06844,0.179516 0.60666,1.175028 1.299352,2.293952 2.062087,3.355181 0.03187,0.04489 0.08916,0.06413 0.141736,0.04808 3.300955,-1.021115 6.648112,-2.561663 10.103548,-5.099258 0.03027,-0.02242 0.04938,-0.0561 0.05258,-0.09297 0.842345,-8.714181 -1.410866,-16.28372 -5.972994,-22.99408 -0.01116,-0.02242 -0.03022,-0.03846 -0.05252,-0.04808 z M 43.251229,32.635007 c -1.990508,0 -3.63063,-1.827435 -3.63063,-4.071713 0,-2.244278 1.608315,-4.071712 3.63063,-4.071712 2.038188,0 3.662436,1.84348 3.630572,4.071712 0,2.244278 -1.608315,4.071713 -3.630572,4.071713 z m 13.423622,0 c -1.990451,0 -3.630573,-1.827435 -3.630573,-4.071713 0,-2.244278 1.608258,-4.071712 3.630573,-4.071712 2.038246,0 3.662436,1.84348 3.630629,4.071712 0,2.244278 -1.592383,4.071713 -3.630629,4.071713 z"
   fill="#5865f2"
   id="path1026-4"
   style="display:inline;fill:#ffffff;fill-opacity:1;stroke-width:0.568992"
   inkscape:label="logo" /></g></svg>
