<?xml version="1.0" encoding="UTF-8" standalone="no"?>
<!-- Generator: Adobe Illustrator 26.0.1, SVG Export Plug-In . SVG Version: 6.00 Build 0)  -->

<svg
   version="1.1"
   x="0px"
   y="0px"
   viewBox="0 0 150.00001 24.999999"
   xml:space="preserve"
   id="svg94"
   sodipodi:docname="github.svg"
   inkscape:version="1.2 (dc2aedaf03, 2022-05-15)"
   width="150"
   height="25"
   xmlns:inkscape="http://www.inkscape.org/namespaces/inkscape"
   xmlns:sodipodi="http://sodipodi.sourceforge.net/DTD/sodipodi-0.dtd"
   xmlns="http://www.w3.org/2000/svg"
   xmlns:svg="http://www.w3.org/2000/svg"><defs
   id="defs98"><clipPath
     id="clip0"><rect
       width="71"
       height="55"
       fill="#ffffff"
       id="rect1030"
       x="0"
       y="0" /></clipPath></defs><sodipodi:namedview
   id="namedview96"
   pagecolor="#ffffff"
   bordercolor="#000000"
   borderopacity="0.25"
   inkscape:showpageshadow="2"
   inkscape:pageopacity="0.0"
   inkscape:pagecheckerboard="0"
   inkscape:deskcolor="#000000"
   showgrid="false"
   inkscape:zoom="7.9999999"
   inkscape:cx="77.500001"
   inkscape:cy="11.1875"
   inkscape:window-width="1920"
   inkscape:window-height="999"
   inkscape:window-x="0"
   inkscape:window-y="0"
   inkscape:window-maximized="1"
   inkscape:current-layer="svg94" />
<style
   type="text/css"
   id="style74">
	.st0{display:none;}
	.st1{display:inline;}
	.st2{fill:#2091C0;}
	.st3{fill:#FFFFFF;}
	.st4{font-family:'JetBrainsMono-Medium';}
	.st5{font-size:47.0914px;}
</style>


<g
   inkscape:groupmode="layer"
   id="layer1"
   inkscape:label="background"><rect
     style="fill:#333333;fill-opacity:1;stroke-width:0.643274"
     id="rect1506"
     width="148.47887"
     height="22.386663"
     x="0.62099999"
     y="1.2"
     ry="10.739675"
     inkscape:label="color_rounded" /></g><g
   id="Слой_2"
   transform="matrix(0.5,0,0,0.5,-3.1425839,0.11180457)"
   inkscape:label="foreground"
   style="display:inline">
	
<text
   xml:space="preserve"
   style="font-size:32px;font-family:'DejaVu Sans Mono for Powerline';-inkscape-font-specification:'DejaVu Sans Mono for Powerline';display:none;fill:#ffffff"
   x="80.52578"
   y="36.408001"
   id="text227"
   inkscape:label="text"><tspan
     sodipodi:role="line"
     id="tspan225"
     x="80.52578"
     y="36.408001"
     style="font-style:normal;font-variant:normal;font-weight:normal;font-stretch:normal;font-size:32px;font-family:Ubuntu;-inkscape-font-specification:Ubuntu">@gmankab</tspan></text><path
   d="m 50.400438,3.4043909 c -11.756936,0 -21.28927,9.5323341 -21.28927,21.2918841 0,9.406858 6.100014,17.386414 14.560564,20.203112 1.065248,0.19474 1.453444,-0.462696 1.453444,-1.027344 0,-0.504522 -0.0184,-1.84425 -0.02876,-3.620534 -5.922256,1.28614 -7.171798,-2.854604 -7.171798,-2.854604 -0.968526,-2.459872 -2.364456,-3.114706 -2.364456,-3.114706 -1.933132,-1.320122 0.14638,-1.293982 0.14638,-1.293982 2.137032,0.15032 3.261096,2.194542 3.261096,2.194542 1.899148,3.253254 4.983792,2.313482 6.196736,1.768442 0.19344,-1.37502 0.742406,-2.313484 1.351492,-2.845454 -4.727608,-0.537198 -9.698328,-2.364458 -9.698328,-10.52308 0,-2.323938 0.829978,-4.224394 2.191926,-5.713126 -0.219584,-0.538506 -0.950226,-2.702985 0.207822,-5.634703 0,0 1.788048,-0.572489 5.855594,2.182777 1.697858,-0.473153 3.51989,-0.708422 5.330156,-0.716265 1.807654,0.0078 3.629686,0.243112 5.33016,0.716265 4.064934,-2.755266 5.84906,-2.182777 5.84906,-2.182777 1.16197,2.931718 0.431328,5.096197 0.211742,5.634703 1.364564,1.488732 2.189314,3.389188 2.189314,5.713126 0,8.179534 -4.978562,9.979346 -9.721856,10.506088 0.764624,0.657448 1.4456,1.956658 1.4456,3.943378 0,2.845454 -0.02614,5.141944 -0.02614,5.83991 0,0.569876 0.382966,1.23255 1.463898,1.02473 8.454016,-2.821926 14.548802,-10.796254 14.548802,-20.200498 0,-11.75955 -9.53364,-21.2918841 -21.293192,-21.2918841"
   style="display:inline;fill:#ffffff;fill-opacity:1;fill-rule:evenodd;stroke:none;stroke-width:1.30705"
   id="path3673"
   inkscape:label="logo" /><g
   aria-label="@gmankab"
   id="text174"
   style="font-size:32px;font-family:'DejaVu Sans Mono for Powerline';-inkscape-font-specification:'DejaVu Sans Mono for Powerline';fill:#ffffff"
   inkscape:label="text"
   transform="translate(0,-0.19961014)"><path
     d="m 102.60578,35.032001 q -1.024,0 -1.696,-0.288 -0.672,-0.288 -1.12,-0.768 -0.704,0.384 -1.696,0.672 -0.992,0.256 -1.984,0.256 -1.536,0 -2.816,-0.48 -1.248,-0.48 -2.176,-1.408 -0.928,-0.96 -1.44,-2.336 -0.512,-1.376 -0.512,-3.2 0,-1.536 0.48,-2.88 0.48,-1.376 1.408,-2.368 0.96,-1.024 2.304,-1.6 1.376,-0.576 3.104,-0.576 1.632,0 2.976,0.256 1.376,0.256 2.112,0.512 v 9.792 q 0,1.024 0.352,1.44 0.352,0.416 0.928,0.416 0.832,0 1.44,-0.576 0.64,-0.576 1.024,-1.504 0.416,-0.928 0.608,-2.08 0.192,-1.184 0.192,-2.4 0,-2.016 -0.704,-3.776 -0.704,-1.792 -2.016,-3.136 -1.312,-1.344 -3.2,-2.112 -1.856,-0.768 -4.192,-0.768 -2.336,0 -4.288,0.8 -1.952,0.768 -3.36,2.24 -1.408,1.44 -2.208,3.552 -0.768,2.112 -0.768,4.8 0,2.816 0.832,4.96 0.832,2.112 2.304,3.552 1.504,1.408 3.52,2.112 2.048,0.736 4.48,0.736 1.888,0 3.104,-0.224 1.248,-0.224 1.6,-0.352 l 0.32,2.368 q -0.544,0.192 -1.984,0.416 -1.408,0.224 -3.04,0.224 -2.848,0 -5.376,-0.832 -2.528,-0.8 -4.416,-2.496 -1.888,-1.664 -3.008,-4.256 -1.088,-2.624 -1.088,-6.208 0,-3.456 1.088,-6.048 1.088,-2.592 2.912,-4.288 1.856,-1.728 4.256,-2.592 2.432,-0.864 5.12,-0.864 2.624,0 4.96,0.864 2.336,0.832 4.096,2.464 1.76,1.6 2.784,3.904 1.024,2.272 1.024,5.152 0,2.176 -0.512,3.84 -0.48,1.664 -1.312,2.816 -0.832,1.12 -1.984,1.696 -1.152,0.576 -2.432,0.576 z m -6.4,-2.592 q 0.672,0 1.344,-0.128 0.704,-0.16 1.248,-0.448 -0.096,-0.416 -0.128,-0.832 -0.032,-0.416 -0.032,-0.8 v -7.52 q -0.192,-0.064 -0.736,-0.128 -0.544,-0.064 -1.216,-0.064 -2.272,0 -3.392,1.408 -1.12,1.408 -1.12,3.552 0,2.272 1.088,3.616 1.088,1.344 2.944,1.344 z"
     style="font-family:Ubuntu;-inkscape-font-specification:Ubuntu"
     id="path176" /><path
     d="m 123.9178,34.744001 q -0.384,0.256 -1.504,0.672 -1.088,0.384 -2.56,0.384 -1.504,0 -2.848,-0.48 -1.312,-0.48 -2.304,-1.472 -0.992,-1.024 -1.568,-2.528 -0.576,-1.504 -0.576,-3.584 0,-1.824 0.544,-3.328 0.544,-1.536 1.568,-2.624 1.056,-1.12 2.56,-1.728 1.504,-0.64 3.392,-0.64 2.08,0 3.616,0.32 1.568,0.288 2.624,0.544 v 14.848 q 0,3.84 -1.984,5.568 -1.984,1.728 -6.016,1.728 -1.568,0 -2.976,-0.256 -1.376,-0.256 -2.4,-0.608 l 0.544,-2.592 q 0.896,0.352 2.176,0.608 1.312,0.288 2.72,0.288 2.656,0 3.808,-1.056 1.184,-1.056 1.184,-3.36 z m -0.032,-12.352 q -0.448,-0.128 -1.216,-0.224 -0.736,-0.128 -2.016,-0.128 -2.4,0 -3.712,1.568 -1.28,1.568 -1.28,4.16 0,1.44 0.352,2.464 0.384,1.024 0.992,1.696 0.64,0.672 1.44,0.992 0.832,0.32 1.696,0.32 1.184,0 2.176,-0.32 0.992,-0.352 1.568,-0.8 z"
     style="font-family:Ubuntu;-inkscape-font-specification:Ubuntu"
     id="path178" /><path
     d="m 131.98178,20.248001 q 1.024,-0.256 2.688,-0.544 1.696,-0.288 3.904,-0.288 1.6,0 2.688,0.448 1.088,0.416 1.824,1.248 0.224,-0.16 0.704,-0.448 0.48,-0.288 1.184,-0.544 0.704,-0.288 1.568,-0.48 0.864,-0.224 1.856,-0.224 1.92,0 3.136,0.576 1.216,0.544 1.888,1.568 0.704,1.024 0.928,2.432 0.256,1.408 0.256,3.072 v 9.344 h -2.976 v -8.704 q 0,-1.472 -0.16,-2.528 -0.128,-1.056 -0.544,-1.76 -0.384,-0.704 -1.088,-1.024 -0.672,-0.352 -1.76,-0.352 -1.504,0 -2.496,0.416 -0.96,0.384 -1.312,0.704 0.256,0.832 0.384,1.824 0.128,0.992 0.128,2.08 v 9.344 h -2.976 v -8.704 q 0,-1.472 -0.16,-2.528 -0.16,-1.056 -0.576,-1.76 -0.384,-0.704 -1.088,-1.024 -0.672,-0.352 -1.728,-0.352 -0.448,0 -0.96,0.032 -0.512,0.032 -0.992,0.096 -0.448,0.032 -0.832,0.096 -0.384,0.064 -0.512,0.096 v 14.048 h -2.976 z"
     style="font-family:Ubuntu;-inkscape-font-specification:Ubuntu"
     id="path180" /><path
     d="m 165.16578,34.264001 q 1.056,0 1.856,-0.032 0.832,-0.064 1.376,-0.192 v -4.96 q -0.32,-0.16 -1.056,-0.256 -0.704,-0.128 -1.728,-0.128 -0.672,0 -1.44,0.096 -0.736,0.096 -1.376,0.416 -0.608,0.288 -1.024,0.832 -0.416,0.512 -0.416,1.376 0,1.6 1.024,2.24 1.024,0.608 2.784,0.608 z m -0.256,-14.912 q 1.792,0 3.008,0.48 1.248,0.448 1.984,1.312 0.768,0.832 1.088,2.016 0.32,1.152 0.32,2.56 v 10.4 q -0.384,0.064 -1.088,0.192 -0.672,0.096 -1.536,0.192 -0.864,0.096 -1.888,0.16 -0.992,0.096 -1.984,0.096 -1.408,0 -2.592,-0.288 -1.184,-0.288 -2.048,-0.896 -0.864,-0.64 -1.344,-1.664 -0.48,-1.024 -0.48,-2.464 0,-1.376 0.544,-2.368 0.576,-0.992 1.536,-1.6 0.96,-0.608 2.24,-0.896 1.28,-0.288 2.688,-0.288 0.448,0 0.928,0.064 0.48,0.032 0.896,0.128 0.448,0.064 0.768,0.128 0.32,0.064 0.448,0.096 v -0.832 q 0,-0.736 -0.16,-1.44 -0.16,-0.736 -0.576,-1.28 -0.416,-0.576 -1.152,-0.896 -0.704,-0.352 -1.856,-0.352 -1.472,0 -2.592,0.224 -1.088,0.192 -1.632,0.416 l -0.352,-2.464 q 0.576,-0.256 1.92,-0.48 1.344,-0.256 2.912,-0.256 z"
     style="font-family:Ubuntu;-inkscape-font-specification:Ubuntu"
     id="path182" /><path
     d="m 176.23776,20.248001 q 1.024,-0.256 2.72,-0.544 1.696,-0.288 3.904,-0.288 1.984,0 3.296,0.576 1.312,0.544 2.08,1.568 0.8,0.992 1.12,2.4 0.32,1.408 0.32,3.104 v 9.344 h -2.976 v -8.704 q 0,-1.536 -0.224,-2.624 -0.192,-1.088 -0.672,-1.76 -0.48,-0.672 -1.28,-0.96 -0.8,-0.32 -1.984,-0.32 -0.48,0 -0.992,0.032 -0.512,0.032 -0.992,0.096 -0.448,0.032 -0.832,0.096 -0.352,0.064 -0.512,0.096 v 14.048 h -2.976 z"
     style="font-family:Ubuntu;-inkscape-font-specification:Ubuntu"
     id="path184" /><path
     d="m 200.62174,27.256001 q 0.96,0.736 2.016,1.824 1.088,1.088 2.112,2.368 1.056,1.248 1.984,2.56 0.928,1.28 1.568,2.4 h -3.488 q -0.672,-1.12 -1.568,-2.272 -0.864,-1.184 -1.824,-2.24 -0.96,-1.088 -1.952,-1.984 -0.992,-0.896 -1.888,-1.504 v 8 h -2.976 v -24.32 l 2.976,-0.512 v 15.168 q 0.768,-0.768 1.696,-1.696 0.928,-0.928 1.824,-1.888 0.896,-0.96 1.696,-1.824 0.8,-0.896 1.376,-1.568 h 3.488 q -0.736,0.8 -1.6,1.76 -0.864,0.96 -1.792,1.952 -0.928,0.96 -1.888,1.952 -0.928,0.96 -1.76,1.824 z"
     style="font-family:Ubuntu;-inkscape-font-specification:Ubuntu"
     id="path186" /><path
     d="m 216.94172,34.264001 q 1.056,0 1.856,-0.032 0.832,-0.064 1.376,-0.192 v -4.96 q -0.32,-0.16 -1.056,-0.256 -0.704,-0.128 -1.728,-0.128 -0.672,0 -1.44,0.096 -0.736,0.096 -1.376,0.416 -0.608,0.288 -1.024,0.832 -0.416,0.512 -0.416,1.376 0,1.6 1.024,2.24 1.024,0.608 2.784,0.608 z m -0.256,-14.912 q 1.792,0 3.008,0.48 1.248,0.448 1.984,1.312 0.768,0.832 1.088,2.016 0.32,1.152 0.32,2.56 v 10.4 q -0.384,0.064 -1.088,0.192 -0.672,0.096 -1.536,0.192 -0.864,0.096 -1.888,0.16 -0.992,0.096 -1.984,0.096 -1.408,0 -2.592,-0.288 -1.184,-0.288 -2.048,-0.896 -0.864,-0.64 -1.344,-1.664 -0.48,-1.024 -0.48,-2.464 0,-1.376 0.544,-2.368 0.576,-0.992 1.536,-1.6 0.96,-0.608 2.24,-0.896 1.28,-0.288 2.688,-0.288 0.448,0 0.928,0.064 0.48,0.032 0.896,0.128 0.448,0.064 0.768,0.128 0.32,0.064 0.448,0.096 v -0.832 q 0,-0.736 -0.16,-1.44 -0.16,-0.736 -0.576,-1.28 -0.416,-0.576 -1.152,-0.896 -0.704,-0.352 -1.856,-0.352 -1.472,0 -2.592,0.224 -1.088,0.192 -1.632,0.416 l -0.352,-2.464 q 0.576,-0.256 1.92,-0.48 1.344,-0.256 2.912,-0.256 z"
     style="font-family:Ubuntu;-inkscape-font-specification:Ubuntu"
     id="path188" /><path
     d="m 230.9897,20.504001 q 0.544,-0.352 1.632,-0.736 1.12,-0.384 2.56,-0.384 1.792,0 3.168,0.64 1.408,0.64 2.368,1.792 0.96,1.152 1.44,2.752 0.512,1.6 0.512,3.52 0,2.016 -0.608,3.648 -0.576,1.6 -1.664,2.72 -1.088,1.12 -2.624,1.728 -1.536,0.608 -3.456,0.608 -2.08,0 -3.68,-0.288 -1.6,-0.288 -2.624,-0.576 v -23.84 l 2.976,-0.512 z m 0,13.312 q 0.448,0.128 1.248,0.256 0.832,0.096 2.048,0.096 2.4,0 3.84,-1.568 1.44,-1.6 1.44,-4.512 0,-1.28 -0.256,-2.4 -0.256,-1.12 -0.832,-1.92 -0.576,-0.832 -1.504,-1.28 -0.896,-0.48 -2.176,-0.48 -1.216,0 -2.24,0.416 -1.024,0.416 -1.568,0.864 z"
     style="font-family:Ubuntu;-inkscape-font-specification:Ubuntu"
     id="path190" /></g></g></svg>
