<?xml version="1.0" encoding="UTF-8" standalone="no"?>
<!-- Generator: Adobe Illustrator 26.0.1, SVG Export Plug-In . SVG Version: 6.00 Build 0)  -->

<svg
   version="1.1"
   x="0px"
   y="0px"
   viewBox="0 0 150.00001 24.999999"
   xml:space="preserve"
   id="svg94"
   sodipodi:docname="github.svg"
   inkscape:version="1.2 (dc2aedaf03, 2022-05-15)"
   width="150"
   height="25"
   xmlns:inkscape="http://www.inkscape.org/namespaces/inkscape"
   xmlns:sodipodi="http://sodipodi.sourceforge.net/DTD/sodipodi-0.dtd"
   xmlns="http://www.w3.org/2000/svg"
   xmlns:svg="http://www.w3.org/2000/svg"><defs
   id="defs98"><clipPath
     id="clip0"><rect
       width="71"
       height="55"
       fill="#ffffff"
       id="rect1030"
       x="0"
       y="0" /></clipPath></defs><sodipodi:namedview
   id="namedview96"
   pagecolor="#ffffff"
   bordercolor="#000000"
   borderopacity="0.25"
   inkscape:showpageshadow="2"
   inkscape:pageopacity="0.0"
   inkscape:pagecheckerboard="0"
   inkscape:deskcolor="#000000"
   showgrid="false"
   inkscape:zoom="5.6568542"
   inkscape:cx="32.173359"
   inkscape:cy="48.70198"
   inkscape:window-width="1920"
   inkscape:window-height="999"
   inkscape:window-x="0"
   inkscape:window-y="0"
   inkscape:window-maximized="1"
   inkscape:current-layer="Слой_2" />
<style
   type="text/css"
   id="style74">
	.st0{display:none;}
	.st1{display:inline;}
	.st2{fill:#2091C0;}
	.st3{fill:#FFFFFF;}
	.st4{font-family:'JetBrainsMono-Medium';}
	.st5{font-size:47.0914px;}
</style>


<g
   inkscape:groupmode="layer"
   id="layer1"
   inkscape:label="background"><rect
     style="fill:#333333;fill-opacity:1;stroke-width:0.643274"
     id="rect1506"
     width="148.47887"
     height="22.386663"
     x="0.62099999"
     y="1.4"
     ry="10.739675"
     inkscape:label="color_rounded" /></g><g
   id="Слой_2"
   transform="matrix(0.5,0,0,0.5,-3.1425839,0.11180457)"
   inkscape:label="foreground"
   style="display:inline">
	
<text
   xml:space="preserve"
   style="font-size:32px;font-family:'DejaVu Sans Mono for Powerline';-inkscape-font-specification:'DejaVu Sans Mono for Powerline';display:none;fill:#ffffff"
   x="80.52578"
   y="36.408001"
   id="text227"
   inkscape:label="text"><tspan
     sodipodi:role="line"
     id="tspan225"
     x="80.52578"
     y="36.408001"
     style="font-style:normal;font-variant:normal;font-weight:normal;font-stretch:normal;font-size:32px;font-family:Ubuntu;-inkscape-font-specification:Ubuntu">@gmankab</tspan></text><path
   d="M 22.057635,2.314 C 16.179167,2.314 11.413,7.0801668 11.413,12.959942 c 0,4.703429 3.050007,8.693207 7.280282,10.101556 0.532624,0.09737 0.726722,-0.231348 0.726722,-0.513672 0,-0.252261 -0.0092,-0.922125 -0.01438,-1.810267 -2.961128,0.64307 -3.585899,-1.427302 -3.585899,-1.427302 -0.484263,-1.229936 -1.182228,-1.557353 -1.182228,-1.557353 -0.966566,-0.660061 0.07319,-0.646991 0.07319,-0.646991 1.068516,0.07516 1.630548,1.097271 1.630548,1.097271 0.949574,1.626627 2.491896,1.156741 3.098368,0.884221 0.09672,-0.68751 0.371203,-1.156742 0.675746,-1.422727 -2.363804,-0.268599 -4.849164,-1.182229 -4.849164,-5.26154 0,-1.161969 0.414989,-2.112197 1.095963,-2.8565631 -0.109792,-0.2692531 -0.475113,-1.3514926 0.103911,-2.8173515 0,0 0.894024,-0.2862445 2.927797,1.0913884 0.848929,-0.2365762 1.759945,-0.3542109 2.665078,-0.3581321 0.903827,0.00392 1.814843,0.1215559 2.66508,0.3581321 2.032467,-1.3776329 2.92453,-1.0913884 2.92453,-1.0913884 0.580985,1.4658589 0.215664,2.5480984 0.105871,2.8173515 0.682282,0.7443661 1.094657,1.6945941 1.094657,2.8565631 0,4.089767 -2.489281,4.989673 -4.860928,5.253044 0.382312,0.328724 0.7228,0.978329 0.7228,1.971689 0,1.422727 -0.01307,2.570972 -0.01307,2.919955 0,0.284938 0.191483,0.616275 0.731949,0.512365 4.227008,-1.410963 7.274401,-5.398127 7.274401,-10.100249 C 32.704224,7.0801668 27.937404,2.314 22.057628,2.314"
   style="display:inline;fill:#ffffff;fill-opacity:1;fill-rule:evenodd;stroke:none;stroke-width:0.653525"
   id="path3673"
   transform="matrix(2,0,0,2,6.2851678,-0.22360914)"
   inkscape:label="logo" /><g
   aria-label="@gmankab"
   id="text174"
   style="font-size:32px;font-family:'DejaVu Sans Mono for Powerline';-inkscape-font-specification:'DejaVu Sans Mono for Powerline';fill:#ffffff"
   inkscape:label="text"><path
     d="m 102.60578,35.032001 q -1.024,0 -1.696,-0.288 -0.672,-0.288 -1.12,-0.768 -0.704,0.384 -1.696,0.672 -0.992,0.256 -1.984,0.256 -1.536,0 -2.816,-0.48 -1.248,-0.48 -2.176,-1.408 -0.928,-0.96 -1.44,-2.336 -0.512,-1.376 -0.512,-3.2 0,-1.536 0.48,-2.88 0.48,-1.376 1.408,-2.368 0.96,-1.024 2.304,-1.6 1.376,-0.576 3.104,-0.576 1.632,0 2.976,0.256 1.376,0.256 2.112,0.512 v 9.792 q 0,1.024 0.352,1.44 0.352,0.416 0.928,0.416 0.832,0 1.44,-0.576 0.64,-0.576 1.024,-1.504 0.416,-0.928 0.608,-2.08 0.192,-1.184 0.192,-2.4 0,-2.016 -0.704,-3.776 -0.704,-1.792 -2.016,-3.136 -1.312,-1.344 -3.2,-2.112 -1.856,-0.768 -4.192,-0.768 -2.336,0 -4.288,0.8 -1.952,0.768 -3.36,2.24 -1.408,1.44 -2.208,3.552 -0.768,2.112 -0.768,4.8 0,2.816 0.832,4.96 0.832,2.112 2.304,3.552 1.504,1.408 3.52,2.112 2.048,0.736 4.48,0.736 1.888,0 3.104,-0.224 1.248,-0.224 1.6,-0.352 l 0.32,2.368 q -0.544,0.192 -1.984,0.416 -1.408,0.224 -3.04,0.224 -2.848,0 -5.376,-0.832 -2.528,-0.8 -4.416,-2.496 -1.888,-1.664 -3.008,-4.256 -1.088,-2.624 -1.088,-6.208 0,-3.456 1.088,-6.048 1.088,-2.592 2.912,-4.288 1.856,-1.728 4.256,-2.592 2.432,-0.864 5.12,-0.864 2.624,0 4.96,0.864 2.336,0.832 4.096,2.464 1.76,1.6 2.784,3.904 1.024,2.272 1.024,5.152 0,2.176 -0.512,3.84 -0.48,1.664 -1.312,2.816 -0.832,1.12 -1.984,1.696 -1.152,0.576 -2.432,0.576 z m -6.4,-2.592 q 0.672,0 1.344,-0.128 0.704,-0.16 1.248,-0.448 -0.096,-0.416 -0.128,-0.832 -0.032,-0.416 -0.032,-0.8 v -7.52 q -0.192,-0.064 -0.736,-0.128 -0.544,-0.064 -1.216,-0.064 -2.272,0 -3.392,1.408 -1.12,1.408 -1.12,3.552 0,2.272 1.088,3.616 1.088,1.344 2.944,1.344 z"
     style="font-family:Ubuntu;-inkscape-font-specification:Ubuntu"
     id="path176" /><path
     d="m 123.9178,34.744001 q -0.384,0.256 -1.504,0.672 -1.088,0.384 -2.56,0.384 -1.504,0 -2.848,-0.48 -1.312,-0.48 -2.304,-1.472 -0.992,-1.024 -1.568,-2.528 -0.576,-1.504 -0.576,-3.584 0,-1.824 0.544,-3.328 0.544,-1.536 1.568,-2.624 1.056,-1.12 2.56,-1.728 1.504,-0.64 3.392,-0.64 2.08,0 3.616,0.32 1.568,0.288 2.624,0.544 v 14.848 q 0,3.84 -1.984,5.568 -1.984,1.728 -6.016,1.728 -1.568,0 -2.976,-0.256 -1.376,-0.256 -2.4,-0.608 l 0.544,-2.592 q 0.896,0.352 2.176,0.608 1.312,0.288 2.72,0.288 2.656,0 3.808,-1.056 1.184,-1.056 1.184,-3.36 z m -0.032,-12.352 q -0.448,-0.128 -1.216,-0.224 -0.736,-0.128 -2.016,-0.128 -2.4,0 -3.712,1.568 -1.28,1.568 -1.28,4.16 0,1.44 0.352,2.464 0.384,1.024 0.992,1.696 0.64,0.672 1.44,0.992 0.832,0.32 1.696,0.32 1.184,0 2.176,-0.32 0.992,-0.352 1.568,-0.8 z"
     style="font-family:Ubuntu;-inkscape-font-specification:Ubuntu"
     id="path178" /><path
     d="m 131.98178,20.248001 q 1.024,-0.256 2.688,-0.544 1.696,-0.288 3.904,-0.288 1.6,0 2.688,0.448 1.088,0.416 1.824,1.248 0.224,-0.16 0.704,-0.448 0.48,-0.288 1.184,-0.544 0.704,-0.288 1.568,-0.48 0.864,-0.224 1.856,-0.224 1.92,0 3.136,0.576 1.216,0.544 1.888,1.568 0.704,1.024 0.928,2.432 0.256,1.408 0.256,3.072 v 9.344 h -2.976 v -8.704 q 0,-1.472 -0.16,-2.528 -0.128,-1.056 -0.544,-1.76 -0.384,-0.704 -1.088,-1.024 -0.672,-0.352 -1.76,-0.352 -1.504,0 -2.496,0.416 -0.96,0.384 -1.312,0.704 0.256,0.832 0.384,1.824 0.128,0.992 0.128,2.08 v 9.344 h -2.976 v -8.704 q 0,-1.472 -0.16,-2.528 -0.16,-1.056 -0.576,-1.76 -0.384,-0.704 -1.088,-1.024 -0.672,-0.352 -1.728,-0.352 -0.448,0 -0.96,0.032 -0.512,0.032 -0.992,0.096 -0.448,0.032 -0.832,0.096 -0.384,0.064 -0.512,0.096 v 14.048 h -2.976 z"
     style="font-family:Ubuntu;-inkscape-font-specification:Ubuntu"
     id="path180" /><path
     d="m 165.16578,34.264001 q 1.056,0 1.856,-0.032 0.832,-0.064 1.376,-0.192 v -4.96 q -0.32,-0.16 -1.056,-0.256 -0.704,-0.128 -1.728,-0.128 -0.672,0 -1.44,0.096 -0.736,0.096 -1.376,0.416 -0.608,0.288 -1.024,0.832 -0.416,0.512 -0.416,1.376 0,1.6 1.024,2.24 1.024,0.608 2.784,0.608 z m -0.256,-14.912 q 1.792,0 3.008,0.48 1.248,0.448 1.984,1.312 0.768,0.832 1.088,2.016 0.32,1.152 0.32,2.56 v 10.4 q -0.384,0.064 -1.088,0.192 -0.672,0.096 -1.536,0.192 -0.864,0.096 -1.888,0.16 -0.992,0.096 -1.984,0.096 -1.408,0 -2.592,-0.288 -1.184,-0.288 -2.048,-0.896 -0.864,-0.64 -1.344,-1.664 -0.48,-1.024 -0.48,-2.464 0,-1.376 0.544,-2.368 0.576,-0.992 1.536,-1.6 0.96,-0.608 2.24,-0.896 1.28,-0.288 2.688,-0.288 0.448,0 0.928,0.064 0.48,0.032 0.896,0.128 0.448,0.064 0.768,0.128 0.32,0.064 0.448,0.096 v -0.832 q 0,-0.736 -0.16,-1.44 -0.16,-0.736 -0.576,-1.28 -0.416,-0.576 -1.152,-0.896 -0.704,-0.352 -1.856,-0.352 -1.472,0 -2.592,0.224 -1.088,0.192 -1.632,0.416 l -0.352,-2.464 q 0.576,-0.256 1.92,-0.48 1.344,-0.256 2.912,-0.256 z"
     style="font-family:Ubuntu;-inkscape-font-specification:Ubuntu"
     id="path182" /><path
     d="m 176.23776,20.248001 q 1.024,-0.256 2.72,-0.544 1.696,-0.288 3.904,-0.288 1.984,0 3.296,0.576 1.312,0.544 2.08,1.568 0.8,0.992 1.12,2.4 0.32,1.408 0.32,3.104 v 9.344 h -2.976 v -8.704 q 0,-1.536 -0.224,-2.624 -0.192,-1.088 -0.672,-1.76 -0.48,-0.672 -1.28,-0.96 -0.8,-0.32 -1.984,-0.32 -0.48,0 -0.992,0.032 -0.512,0.032 -0.992,0.096 -0.448,0.032 -0.832,0.096 -0.352,0.064 -0.512,0.096 v 14.048 h -2.976 z"
     style="font-family:Ubuntu;-inkscape-font-specification:Ubuntu"
     id="path184" /><path
     d="m 200.62174,27.256001 q 0.96,0.736 2.016,1.824 1.088,1.088 2.112,2.368 1.056,1.248 1.984,2.56 0.928,1.28 1.568,2.4 h -3.488 q -0.672,-1.12 -1.568,-2.272 -0.864,-1.184 -1.824,-2.24 -0.96,-1.088 -1.952,-1.984 -0.992,-0.896 -1.888,-1.504 v 8 h -2.976 v -24.32 l 2.976,-0.512 v 15.168 q 0.768,-0.768 1.696,-1.696 0.928,-0.928 1.824,-1.888 0.896,-0.96 1.696,-1.824 0.8,-0.896 1.376,-1.568 h 3.488 q -0.736,0.8 -1.6,1.76 -0.864,0.96 -1.792,1.952 -0.928,0.96 -1.888,1.952 -0.928,0.96 -1.76,1.824 z"
     style="font-family:Ubuntu;-inkscape-font-specification:Ubuntu"
     id="path186" /><path
     d="m 216.94172,34.264001 q 1.056,0 1.856,-0.032 0.832,-0.064 1.376,-0.192 v -4.96 q -0.32,-0.16 -1.056,-0.256 -0.704,-0.128 -1.728,-0.128 -0.672,0 -1.44,0.096 -0.736,0.096 -1.376,0.416 -0.608,0.288 -1.024,0.832 -0.416,0.512 -0.416,1.376 0,1.6 1.024,2.24 1.024,0.608 2.784,0.608 z m -0.256,-14.912 q 1.792,0 3.008,0.48 1.248,0.448 1.984,1.312 0.768,0.832 1.088,2.016 0.32,1.152 0.32,2.56 v 10.4 q -0.384,0.064 -1.088,0.192 -0.672,0.096 -1.536,0.192 -0.864,0.096 -1.888,0.16 -0.992,0.096 -1.984,0.096 -1.408,0 -2.592,-0.288 -1.184,-0.288 -2.048,-0.896 -0.864,-0.64 -1.344,-1.664 -0.48,-1.024 -0.48,-2.464 0,-1.376 0.544,-2.368 0.576,-0.992 1.536,-1.6 0.96,-0.608 2.24,-0.896 1.28,-0.288 2.688,-0.288 0.448,0 0.928,0.064 0.48,0.032 0.896,0.128 0.448,0.064 0.768,0.128 0.32,0.064 0.448,0.096 v -0.832 q 0,-0.736 -0.16,-1.44 -0.16,-0.736 -0.576,-1.28 -0.416,-0.576 -1.152,-0.896 -0.704,-0.352 -1.856,-0.352 -1.472,0 -2.592,0.224 -1.088,0.192 -1.632,0.416 l -0.352,-2.464 q 0.576,-0.256 1.92,-0.48 1.344,-0.256 2.912,-0.256 z"
     style="font-family:Ubuntu;-inkscape-font-specification:Ubuntu"
     id="path188" /><path
     d="m 230.9897,20.504001 q 0.544,-0.352 1.632,-0.736 1.12,-0.384 2.56,-0.384 1.792,0 3.168,0.64 1.408,0.64 2.368,1.792 0.96,1.152 1.44,2.752 0.512,1.6 0.512,3.52 0,2.016 -0.608,3.648 -0.576,1.6 -1.664,2.72 -1.088,1.12 -2.624,1.728 -1.536,0.608 -3.456,0.608 -2.08,0 -3.68,-0.288 -1.6,-0.288 -2.624,-0.576 v -23.84 l 2.976,-0.512 z m 0,13.312 q 0.448,0.128 1.248,0.256 0.832,0.096 2.048,0.096 2.4,0 3.84,-1.568 1.44,-1.6 1.44,-4.512 0,-1.28 -0.256,-2.4 -0.256,-1.12 -0.832,-1.92 -0.576,-0.832 -1.504,-1.28 -0.896,-0.48 -2.176,-0.48 -1.216,0 -2.24,0.416 -1.024,0.416 -1.568,0.864 z"
     style="font-family:Ubuntu;-inkscape-font-specification:Ubuntu"
     id="path190" /></g></g></svg>
