<?xml version="1.0" encoding="UTF-8" standalone="no"?>
<!-- Generator: Adobe Illustrator 26.0.1, SVG Export Plug-In . SVG Version: 6.00 Build 0)  -->

<svg
   version="1.1"
   x="0px"
   y="0px"
   viewBox="0 0 150.00001 24.999999"
   xml:space="preserve"
   id="svg94"
   sodipodi:docname="python.svg"
   inkscape:version="1.2 (dc2aedaf03, 2022-05-15)"
   width="150"
   height="25"
   xmlns:inkscape="http://www.inkscape.org/namespaces/inkscape"
   xmlns:sodipodi="http://sodipodi.sourceforge.net/DTD/sodipodi-0.dtd"
   xmlns:xlink="http://www.w3.org/1999/xlink"
   xmlns="http://www.w3.org/2000/svg"
   xmlns:svg="http://www.w3.org/2000/svg"><defs
   id="defs98"><clipPath
     id="clip0"><rect
       width="71"
       height="55"
       fill="#ffffff"
       id="rect1030"
       x="0"
       y="0" /></clipPath><linearGradient
     gradientUnits="userSpaceOnUse"
     y2="131.85291"
     x2="110.14919"
     y1="77.070274"
     x1="55.549179"
     id="linearGradient9521"
     xlink:href="#linearGradient9515"
     inkscape:collect="always" /><linearGradient
     id="linearGradient9515"
     inkscape:collect="always"><stop
       id="stop9517"
       offset="0"
       style="stop-color:#387eb8;stop-opacity:1" /><stop
       id="stop9519"
       offset="1"
       style="stop-color:#366994;stop-opacity:1" /></linearGradient><linearGradient
     gradientUnits="userSpaceOnUse"
     y2="168.1012"
     x2="147.77737"
     y1="111.92053"
     x1="89.136749"
     id="linearGradient11307"
     xlink:href="#linearGradient11301"
     inkscape:collect="always" /><linearGradient
     id="linearGradient11301"
     inkscape:collect="always"><stop
       id="stop11303"
       offset="0"
       style="stop-color:#ffe052;stop-opacity:1" /><stop
       id="stop11305"
       offset="1"
       style="stop-color:#ffc331;stop-opacity:1" /></linearGradient></defs><sodipodi:namedview
   id="namedview96"
   pagecolor="#ffffff"
   bordercolor="#000000"
   borderopacity="0.25"
   inkscape:showpageshadow="2"
   inkscape:pageopacity="0.0"
   inkscape:pagecheckerboard="0"
   inkscape:deskcolor="#000000"
   showgrid="false"
   inkscape:zoom="7.9999999"
   inkscape:cx="84.875001"
   inkscape:cy="11.3125"
   inkscape:window-width="1920"
   inkscape:window-height="999"
   inkscape:window-x="0"
   inkscape:window-y="0"
   inkscape:window-maximized="1"
   inkscape:current-layer="Слой_2" />
<style
   type="text/css"
   id="style74">
	.st0{display:none;}
	.st1{display:inline;}
	.st2{fill:#2091C0;}
	.st3{fill:#FFFFFF;}
	.st4{font-family:'JetBrainsMono-Medium';}
	.st5{font-size:47.0914px;}
</style>


<g
   inkscape:groupmode="layer"
   id="layer1"
   inkscape:label="background"><rect
     style="fill:#333333;fill-opacity:1;stroke-width:0.643274"
     id="rect1506"
     width="148.47887"
     height="22.386663"
     x="0.62099999"
     y="1.4"
     ry="10.739675"
     inkscape:label="color_rounded" /></g><g
   id="Слой_2"
   transform="matrix(0.5,0,0,0.5,-3.1425839,0.11180457)"
   inkscape:label="foreground"
   style="display:inline">
	
<text
   xml:space="preserve"
   style="font-size:32px;font-family:'DejaVu Sans Mono for Powerline';-inkscape-font-specification:'DejaVu Sans Mono for Powerline';display:none;fill:#ffffff"
   x="80.52578"
   y="36.408001"
   id="text227"
   inkscape:label="text"><tspan
     sodipodi:role="line"
     id="tspan225"
     x="80.52578"
     y="36.408001"
     style="font-style:normal;font-variant:normal;font-weight:normal;font-stretch:normal;font-size:32px;font-family:Ubuntu;-inkscape-font-specification:Ubuntu">python dev</tspan></text><g
   id="g1894"
   transform="matrix(0.35888966,0,0,0.35888966,15.121564,-19.037446)"
   inkscape:label="python"><path
     style="color:#000000;display:inline;overflow:visible;visibility:visible;opacity:1;fill:url(#linearGradient9521);fill-opacity:1;fill-rule:nonzero;stroke:none;stroke-width:1;stroke-linecap:butt;stroke-linejoin:miter;stroke-miterlimit:4;stroke-dasharray:none;stroke-dashoffset:0;stroke-opacity:1;marker:none;marker-start:none;marker-mid:none;marker-end:none"
     d="M 99.75,67.46875 C 71.718268,67.468752 73.46875,79.625 73.46875,79.625 L 73.5,92.21875 h 26.75 V 96 H 62.875 c 0,0 -17.9375,-2.034276 -17.9375,26.25 -2e-6,28.28427 15.65625,27.28125 15.65625,27.28125 h 9.34375 v -13.125 c 0,0 -0.503652,-15.65625 15.40625,-15.65625 15.9099,0 26.53125,0 26.53125,0 0,0 14.90625,0.24096 14.90625,-14.40625 0,-14.647206 0,-24.21875 0,-24.21875 0,-2e-6 2.26318,-14.65625 -27.03125,-14.65625 z M 85,75.9375 c 2.661429,-2e-6 4.8125,2.151071 4.8125,4.8125 2e-6,2.661429 -2.151071,4.8125 -4.8125,4.8125 -2.661429,2e-6 -4.8125,-2.151071 -4.8125,-4.8125 -2e-6,-2.661429 2.151071,-4.8125 4.8125,-4.8125 z"
     id="path8615"
     inkscape:label="blue" /><path
     id="path8620"
     d="m 100.5461,177.31485 c 28.03174,0 26.28125,-12.15625 26.28125,-12.15625 l -0.0312,-12.59375 h -26.75 v -3.78125 h 37.375 c 0,0 17.9375,2.03427 17.9375,-26.25001 10e-6,-28.284267 -15.65625,-27.281247 -15.65625,-27.281247 h -9.34375 v 13.124997 c 0,0 0.50366,15.65625 -15.40625,15.65625 -15.909902,0 -26.531252,0 -26.531252,0 0,0 -14.90625,-0.24096 -14.90625,14.40626 0,14.6472 0,24.21875 0,24.21875 0,0 -2.26318,14.65625 27.031252,14.65625 z m 14.75,-8.46875 c -2.66143,0 -4.8125,-2.15107 -4.8125,-4.8125 0,-2.66143 2.15107,-4.8125 4.8125,-4.8125 2.66143,0 4.8125,2.15107 4.8125,4.8125 1e-5,2.66143 -2.15107,4.8125 -4.8125,4.8125 z"
     style="color:#000000;display:inline;overflow:visible;visibility:visible;opacity:1;fill:url(#linearGradient11307);fill-opacity:1;fill-rule:nonzero;stroke:none;stroke-width:1;stroke-linecap:butt;stroke-linejoin:miter;stroke-miterlimit:4;stroke-dasharray:none;stroke-dashoffset:0;stroke-opacity:1;marker:none;marker-start:none;marker-mid:none;marker-end:none"
     inkscape:label="yellow" /></g><g
   aria-label="python dev"
   id="text184"
   style="font-size:32px;font-family:'DejaVu Sans Mono for Powerline';-inkscape-font-specification:'DejaVu Sans Mono for Powerline';fill:#ffffff"
   inkscape:label="text"
   transform="translate(0,-0.19961014)"><path
     d="m 94.63778,28.120001 q 0,-2.912 -1.44,-4.48 -1.44,-1.568 -3.84,-1.568 -1.344,0 -2.112,0.096 -0.736,0.096 -1.184,0.224 v 10.496 q 0.544,0.448 1.568,0.864 1.024,0.416 2.24,0.416 1.28,0 2.176,-0.448 0.928,-0.48 1.504,-1.28 0.576,-0.832 0.832,-1.92 0.256,-1.12 0.256,-2.4 z m 3.104,0 q 0,1.888 -0.512,3.488 -0.48,1.6 -1.44,2.752 -0.96,1.152 -2.368,1.792 -1.376,0.64 -3.168,0.64 -1.44,0 -2.56,-0.384 -1.088,-0.384 -1.632,-0.736 v 6.656 h -2.976 v -22.048 q 1.056,-0.256 2.624,-0.544 1.6,-0.32 3.68,-0.32 1.92,0 3.456,0.608 1.536,0.608 2.624,1.728 1.088,1.12 1.664,2.752 0.608,1.6 0.608,3.616 z"
     style="font-family:Ubuntu;-inkscape-font-specification:Ubuntu"
     id="path186" /><path
     d="m 99.533804,39.512001 q 0.352,0.16 0.895996,0.288 0.576,0.16 1.12,0.16 1.76,0 2.752,-0.8 0.992,-0.768 1.792,-2.528 -2.016,-3.84 -3.776,-8.128 -1.728,-4.32 -2.879996,-8.736 h 3.199996 q 0.352,1.44 0.832,3.104 0.512,1.664 1.12,3.424 0.608,1.76 1.312,3.52 0.704,1.76 1.472,3.392 1.216,-3.36 2.112,-6.656 0.896,-3.296 1.696,-6.784 h 3.072 q -1.152,4.704 -2.56,9.056 -1.408,4.32 -3.04,8.096 -0.64,1.44 -1.344,2.464 -0.672,1.056 -1.504,1.728 -0.832,0.672 -1.888,0.992 -1.024,0.32 -2.336,0.32 -0.352,0 -0.736,-0.064 -0.384,-0.032 -0.768,-0.128 -0.351996,-0.064 -0.671996,-0.16 -0.288,-0.096 -0.416,-0.16 z"
     style="font-family:Ubuntu;-inkscape-font-specification:Ubuntu"
     id="path188" /><path
     d="m 120.1738,19.768001 h 6.304 v 2.496 h -6.304 v 7.68 q 0,1.248 0.192,2.08 0.192,0.8 0.576,1.28 0.384,0.448 0.96,0.64 0.576,0.192 1.344,0.192 1.344,0 2.144,-0.288 0.832,-0.32 1.152,-0.448 l 0.576,2.464 q -0.448,0.224 -1.568,0.544 -1.12,0.352 -2.56,0.352 -1.696,0 -2.816,-0.416 -1.088,-0.448 -1.76,-1.312 -0.672,-0.864 -0.96,-2.112 -0.256,-1.28 -0.256,-2.944 v -14.848 l 2.976,-0.512 z"
     style="font-family:Ubuntu;-inkscape-font-specification:Ubuntu"
     id="path190" /><path
     d="m 130.25381,36.408001 v -24.32 l 2.976,-0.512 v 8.512 q 0.832,-0.32 1.76,-0.48 0.96,-0.192 1.888,-0.192 1.984,0 3.296,0.576 1.312,0.544 2.08,1.568 0.8,0.992 1.12,2.4 0.32,1.408 0.32,3.104 v 9.344 h -2.976 v -8.704 q 0,-1.536 -0.224,-2.624 -0.192,-1.088 -0.672,-1.76 -0.48,-0.672 -1.28,-0.96 -0.8,-0.32 -1.984,-0.32 -0.48,0 -0.992,0.064 -0.512,0.064 -0.992,0.16 -0.448,0.064 -0.832,0.16 -0.352,0.096 -0.512,0.16 v 13.824 z"
     style="font-family:Ubuntu;-inkscape-font-specification:Ubuntu"
     id="path192" /><path
     d="m 163.21378,28.088001 q 0,1.984 -0.576,3.584 -0.576,1.6 -1.632,2.752 -1.024,1.152 -2.464,1.792 -1.44,0.608 -3.136,0.608 -1.696,0 -3.136,-0.608 -1.44,-0.64 -2.496,-1.792 -1.024,-1.152 -1.6,-2.752 -0.576,-1.6 -0.576,-3.584 0,-1.952 0.576,-3.552 0.576,-1.632 1.6,-2.784 1.056,-1.152 2.496,-1.76 1.44,-0.64 3.136,-0.64 1.696,0 3.136,0.64 1.44,0.608 2.464,1.76 1.056,1.152 1.632,2.784 0.576,1.6 0.576,3.552 z m -3.104,0 q 0,-2.816 -1.28,-4.448 -1.248,-1.664 -3.424,-1.664 -2.176,0 -3.456,1.664 -1.248,1.632 -1.248,4.448 0,2.816 1.248,4.48 1.28,1.632 3.456,1.632 2.176,0 3.424,-1.632 1.28,-1.664 1.28,-4.48 z"
     style="font-family:Ubuntu;-inkscape-font-specification:Ubuntu"
     id="path194" /><path
     d="m 167.40579,20.248001 q 1.024,-0.256 2.72,-0.544 1.696,-0.288 3.904,-0.288 1.984,0 3.296,0.576 1.312,0.544 2.08,1.568 0.8,0.992 1.12,2.4 0.32,1.408 0.32,3.104 v 9.344 h -2.976 v -8.704 q 0,-1.536 -0.224,-2.624 -0.192,-1.088 -0.672,-1.76 -0.48,-0.672 -1.28,-0.96 -0.8,-0.32 -1.984,-0.32 -0.48,0 -0.992,0.032 -0.512,0.032 -0.992,0.096 -0.448,0.032 -0.832,0.096 -0.352,0.064 -0.512,0.096 v 14.048 h -2.976 z"
     style="font-family:Ubuntu;-inkscape-font-specification:Ubuntu"
     id="path196" /><path
     d="m 203.9178,23.288001 q -0.544,-0.448 -1.568,-0.864 -1.024,-0.416 -2.24,-0.416 -1.28,0 -2.208,0.48 -0.896,0.448 -1.472,1.28 -0.576,0.8 -0.832,1.92 -0.256,1.12 -0.256,2.4 0,2.912 1.44,4.512 1.44,1.568 3.84,1.568 1.216,0 2.016,-0.096 0.832,-0.128 1.28,-0.256 z m 0,-11.2 2.976,-0.512 v 24.352 q -1.024,0.288 -2.624,0.576 -1.6,0.288 -3.68,0.288 -1.92,0 -3.456,-0.608 -1.536,-0.608 -2.624,-1.728 -1.088,-1.12 -1.696,-2.72 -0.576,-1.632 -0.576,-3.648 0,-1.92 0.48,-3.52 0.512,-1.6 1.472,-2.752 0.96,-1.152 2.336,-1.792 1.408,-0.64 3.2,-0.64 1.44,0 2.528,0.384 1.12,0.384 1.664,0.736 z"
     style="font-family:Ubuntu;-inkscape-font-specification:Ubuntu"
     id="path198" /><path
     d="m 211.08582,28.120001 q 0,-2.208 0.64,-3.84 0.64,-1.664 1.696,-2.752 1.056,-1.088 2.432,-1.632 1.376,-0.544 2.816,-0.544 3.36,0 5.152,2.112 1.792,2.08 1.792,6.368 0,0.192 0,0.512 0,0.288 -0.032,0.544 h -11.392 q 0.192,2.592 1.504,3.936 1.312,1.344 4.096,1.344 1.568,0 2.624,-0.256 1.088,-0.288 1.632,-0.544 l 0.416,2.496 q -0.544,0.288 -1.92,0.608 -1.344,0.32 -3.072,0.32 -2.176,0 -3.776,-0.64 -1.568,-0.672 -2.592,-1.824 -1.024,-1.152 -1.536,-2.72 -0.48,-1.6 -0.48,-3.488 z m 11.424,-1.632 q 0.032,-2.016 -1.024,-3.296 -1.024,-1.312 -2.848,-1.312 -1.024,0 -1.824,0.416 -0.768,0.384 -1.312,1.024 -0.544,0.64 -0.864,1.472 -0.288,0.832 -0.384,1.696 z"
     style="font-family:Ubuntu;-inkscape-font-specification:Ubuntu"
     id="path200" /><path
     d="m 242.89382,19.768001 q -1.248,4.672 -2.944,8.96 -1.664,4.288 -3.232,7.68 h -2.688 q -1.568,-3.392 -3.264,-7.68 -1.664,-4.288 -2.912,-8.96 h 3.2 q 0.384,1.568 0.896,3.36 0.544,1.76 1.12,3.52 0.608,1.728 1.216,3.36 0.608,1.632 1.152,2.912 0.544,-1.28 1.152,-2.912 0.608,-1.632 1.184,-3.36 0.608,-1.76 1.12,-3.52 0.544,-1.792 0.928,-3.36 z"
     style="font-family:Ubuntu;-inkscape-font-specification:Ubuntu"
     id="path202" /></g></g></svg>
